# xmcd CD database file
#
# Track frame offsets:
#	150
#	14998
#	45939
#	64511
#	89368
#	105242
#	115860
#	125055
#	135942
#	149038
#	170428
#	187856
#	201080
#	222119
#	236208
#	251728
#	270936
#	294163
#	322223
#
# Disc length: 4634 seconds
#
# Revision: 0
# Processed by: cddbd v1.5.2PL0 Copyright (c) Steve Scherf et al.
# Submitted via: CDex 1.51
#
DISCID=16121813
DTITLE=Cleo Laine - John Dankworth - I Hear Music - Disc 2
DYEAR=2007
DGENRE=Jazz
TTITLE0=Experiments with Mice
TTITLE1=Firth of Fourths
TTITLE2=Don't Get Around Much Anymore
TTITLE3=Royal Ascot
TTITLE4=Tomorrow's World
TTITLE5=African Waltz
TTITLE6=Weller Never Did
TTITLE7=Ghosts
TTITLE8=Little Nell
TTITLE9=The Cave of Montesinos
TTITLE10=Madonna
TTITLE11=Theme: Way with the Stars
TTITLE12=Sagittarius
TTITLE13=Modesty Blaise [Theme]
TTITLE14=Darling [Theme]
TTITLE15=All Gone [Theme from the Servant]
TTITLE16=Fighting the Flab
TTITLE17=Brass Roots [From Lifeline Suite]
TTITLE18=Winter Scene
EXTD=YEAR: 2007
EXTT0=
EXTT1=
EXTT2=
EXTT3=
EXTT4=
EXTT5=
EXTT6=
EXTT7=
EXTT8=
EXTT9=
EXTT10=
EXTT11=
EXTT12=
EXTT13=
EXTT14=
EXTT15=
EXTT16=
EXTT17=
EXTT18=
PLAYORDER=
